<svg width="109" height="172" viewBox="0 0 109 172" fill="none" xmlns="http://www.w3.org/2000/svg">
<g clip-path="url(#clip0_769_626)">
<path fill-rule="evenodd" clip-rule="evenodd" d="M52.8636 104.477C52.8636 101.139 50.1948 98.4349 46.8872 98.2497C45.9045 98.1946 44.9061 98.1284 43.8916 98.0503C33.843 97.2773 25.9895 97.4802 19.8999 98.3187C18.3346 98.5343 17.208 99.9067 17.208 101.499V168.702C17.208 170.524 18.6754 172.008 20.4807 171.922C31.1497 171.408 41.1694 168.397 49.9768 163.456C51.7983 162.434 52.8636 160.463 52.8636 158.362V104.477Z" fill="#39A2DB"/>
<path fill-rule="evenodd" clip-rule="evenodd" d="M17.204 65.4514V48.4546H0L17.204 65.4514Z" fill="#DCAC00"/>
<path fill-rule="evenodd" clip-rule="evenodd" d="M18.4668 1.93068C18.4668 0.809816 17.5618 -0.110499 16.4561 0.0107597C7.25299 1.02004 0.090332 8.87723 0.090332 18.4204C0.090332 27.9634 7.25299 35.8207 16.4561 36.8301C17.5618 36.9511 18.4668 36.031 18.4668 34.9099V1.93068Z" fill="#CE4646"/>
<path d="M22.998 33.7405C22.998 25.3341 29.7603 18.5193 38.102 18.5193H68.5616C68.9787 18.5193 69.3168 18.86 69.3168 19.2803C69.3168 27.6868 62.5545 34.5016 54.2129 34.5016H23.7532C23.3361 34.5016 22.998 34.1609 22.998 33.7405Z" fill="#CE4646"/>
<path fill-rule="evenodd" clip-rule="evenodd" d="M20.562 94.5226C26.3527 93.6889 33.8679 93.4738 43.5395 94.2189C44.6821 94.3069 45.8033 94.3792 46.9034 94.4363C50.2403 94.6096 52.954 91.8695 52.954 88.5023V49.7128C52.954 47.615 51.8922 45.6469 50.0752 44.6235C41.106 39.5716 30.8746 36.5233 19.9776 36.0798C18.4495 36.0177 17.208 37.2729 17.208 38.8141V91.6782C17.208 93.4487 18.8227 94.7727 20.562 94.5226ZM34.0741 52.64C34.0741 55.2322 31.989 57.3333 29.417 57.3333C26.8451 57.3333 24.76 55.2322 24.76 52.64C24.76 50.0481 26.8451 47.9468 29.417 47.9468C31.989 47.9468 34.0741 50.0481 34.0741 52.64Z" fill="#CE4646"/>
<path fill-rule="evenodd" clip-rule="evenodd" d="M60.5059 95.9154C60.5059 93.1134 62.7599 90.8417 65.5405 90.8417H73.2634C76.044 90.8417 78.298 88.5701 78.298 85.7679V46.4248C78.298 43.6226 80.5523 41.3511 83.3327 41.3511H103.885C106.665 41.3511 108.919 43.6226 108.919 46.4248V162.614C108.919 165.416 106.665 167.687 103.885 167.687H83.3327C80.5523 167.687 78.298 165.416 78.298 162.614V120.751C78.298 117.949 76.044 115.677 73.2634 115.677H65.5405C62.7599 115.677 60.5059 113.406 60.5059 110.603V95.9154Z" fill="#39A2DB"/>
</g>
<defs>
<clipPath id="clip0_769_626">
<rect width="109" height="172" fill="white"/>
</clipPath>
</defs>
</svg>
